<svg width="99" height="21" viewBox="0 0 99 21" fill="none" xmlns="http://www.w3.org/2000/svg">
<path d="M0.434659 16V1.45455H9.89489V3.66335H3.0696V7.61222H9.40483V9.82102H3.0696V13.7912H9.9517V16H0.434659ZM15.0405 9.60795V16H12.4695V5.09091H14.9268V6.9446H15.0547C15.3056 6.33381 15.7057 5.84848 16.255 5.48864C16.8089 5.12879 17.4931 4.94886 18.3075 4.94886C19.0604 4.94886 19.7161 5.10985 20.2749 5.43182C20.8383 5.75379 21.2739 6.22017 21.5817 6.83097C21.8942 7.44176 22.0481 8.18276 22.0433 9.05398V16H19.4723V9.4517C19.4723 8.72254 19.2829 8.15199 18.9041 7.74006C18.5301 7.32812 18.0116 7.12216 17.3487 7.12216C16.8989 7.12216 16.4988 7.22159 16.1484 7.42045C15.8028 7.61458 15.5305 7.89631 15.3317 8.26562C15.1375 8.63494 15.0405 9.08239 15.0405 9.60795ZM30.1044 5.09091V7.07955H23.8331V5.09091H30.1044ZM25.3814 2.47727H27.9524V12.7188C27.9524 13.0644 28.0045 13.3295 28.1087 13.5142C28.2176 13.6941 28.3596 13.8172 28.5348 13.8835C28.71 13.9498 28.9041 13.983 29.1172 13.983C29.2782 13.983 29.425 13.9711 29.5575 13.9474C29.6948 13.9238 29.799 13.9025 29.87 13.8835L30.3033 15.8935C30.166 15.9408 29.9695 15.9929 29.7138 16.0497C29.4628 16.1065 29.1551 16.1397 28.7905 16.1491C28.1465 16.1681 27.5665 16.071 27.0504 15.858C26.5343 15.6402 26.1248 15.304 25.8217 14.8494C25.5234 14.3949 25.3767 13.8267 25.3814 13.1449V2.47727ZM36.967 16.2131C35.8732 16.2131 34.9286 15.9858 34.1332 15.5312C33.3424 15.072 32.734 14.4233 32.3079 13.5852C31.8817 12.7424 31.6687 11.7505 31.6687 10.6094C31.6687 9.48722 31.8817 8.50237 32.3079 7.65483C32.7388 6.80256 33.3401 6.13968 34.1119 5.66619C34.8836 5.18797 35.7904 4.94886 36.832 4.94886C37.5044 4.94886 38.1388 5.05777 38.7354 5.27557C39.3368 5.48864 39.8671 5.82008 40.3263 6.26989C40.7904 6.7197 41.1549 7.29261 41.4201 7.98864C41.6853 8.67992 41.8178 9.50379 41.8178 10.4602V11.2486H32.8761V9.51562H39.3533C39.3486 9.0232 39.2421 8.58523 39.0337 8.2017C38.8254 7.81345 38.5342 7.50805 38.1602 7.28551C37.7908 7.06297 37.36 6.9517 36.8675 6.9517C36.342 6.9517 35.8803 7.07955 35.4826 7.33523C35.0849 7.58617 34.7747 7.91761 34.5522 8.32955C34.3344 8.73674 34.2231 9.18419 34.2184 9.67188V11.1847C34.2184 11.8191 34.3344 12.3636 34.5664 12.8182C34.7984 13.268 35.1228 13.6136 35.5394 13.8551C35.9561 14.0919 36.4438 14.2102 37.0025 14.2102C37.3765 14.2102 37.7151 14.1581 38.0181 14.054C38.3211 13.9451 38.5839 13.7865 38.8065 13.5781C39.029 13.3698 39.1971 13.1117 39.3107 12.804L41.7113 13.0739C41.5598 13.7083 41.271 14.2623 40.8448 14.7358C40.4234 15.2045 39.8836 15.5691 39.2255 15.8295C38.5674 16.0852 37.8145 16.2131 36.967 16.2131ZM43.9929 16V5.09091H46.4858V6.90909H46.5994C46.7983 6.27936 47.1392 5.79403 47.6222 5.45312C48.1098 5.10748 48.6662 4.93466 49.2912 4.93466C49.4332 4.93466 49.5919 4.94176 49.767 4.95597C49.947 4.96544 50.0961 4.98201 50.2145 5.00568V7.37074C50.1056 7.33286 49.9328 7.29972 49.696 7.27131C49.464 7.23816 49.2391 7.22159 49.0213 7.22159C48.5526 7.22159 48.1312 7.32339 47.7571 7.52699C47.3878 7.72585 47.0966 8.00284 46.8835 8.35795C46.6705 8.71307 46.5639 9.12263 46.5639 9.58665V16H43.9929ZM51.9226 20.0909V5.09091H54.451V6.89489H54.6001C54.7327 6.62973 54.9197 6.34801 55.1612 6.04972C55.4027 5.74669 55.7294 5.48864 56.1413 5.27557C56.5533 5.05777 57.0788 4.94886 57.718 4.94886C58.5608 4.94886 59.3208 5.1643 59.9979 5.59517C60.6797 6.02131 61.2195 6.65341 61.6172 7.49148C62.0196 8.32481 62.2209 9.34754 62.2209 10.5597C62.2209 11.7576 62.0244 12.7756 61.6314 13.6136C61.2384 14.4517 60.7034 15.0909 60.0263 15.5312C59.3492 15.9716 58.5821 16.1918 57.7251 16.1918C57.1001 16.1918 56.5817 16.0876 56.1697 15.8793C55.7578 15.6709 55.4264 15.42 55.1754 15.1264C54.9292 14.8281 54.7375 14.5464 54.6001 14.2812H54.4936V20.0909H51.9226ZM54.4439 10.5455C54.4439 11.2509 54.5433 11.8688 54.7422 12.3991C54.9458 12.9295 55.237 13.3437 55.6158 13.642C55.9993 13.9356 56.4633 14.0824 57.0078 14.0824C57.576 14.0824 58.0518 13.9309 58.4354 13.6278C58.8189 13.3201 59.1077 12.901 59.3018 12.3707C59.5007 11.8357 59.6001 11.2273 59.6001 10.5455C59.6001 9.86837 59.5031 9.26705 59.3089 8.74148C59.1148 8.21591 58.826 7.80398 58.4425 7.50568C58.0589 7.20739 57.5807 7.05824 57.0078 7.05824C56.4586 7.05824 55.9922 7.20265 55.6087 7.49148C55.2251 7.7803 54.9339 8.18513 54.7351 8.70597C54.541 9.2268 54.4439 9.83996 54.4439 10.5455ZM64.4226 16V5.09091H66.9155V6.90909H67.0291C67.228 6.27936 67.5689 5.79403 68.0518 5.45312C68.5395 5.10748 69.0959 4.93466 69.7209 4.93466C69.8629 4.93466 70.0215 4.94176 70.1967 4.95597C70.3767 4.96544 70.5258 4.98201 70.6442 5.00568V7.37074C70.5353 7.33286 70.3625 7.29972 70.1257 7.27131C69.8937 7.23816 69.6688 7.22159 69.451 7.22159C68.9822 7.22159 68.5608 7.32339 68.1868 7.52699C67.8175 7.72585 67.5263 8.00284 67.3132 8.35795C67.1001 8.71307 66.9936 9.12263 66.9936 9.58665V16H64.4226ZM72.3523 16V5.09091H74.9233V16H72.3523ZM73.6449 3.54261C73.2377 3.54261 72.8873 3.40767 72.5938 3.13778C72.3002 2.86316 72.1534 2.53409 72.1534 2.15057C72.1534 1.76231 72.3002 1.43324 72.5938 1.16335C72.8873 0.88873 73.2377 0.75142 73.6449 0.75142C74.0568 0.75142 74.4072 0.88873 74.696 1.16335C74.9896 1.43324 75.1364 1.76231 75.1364 2.15057C75.1364 2.53409 74.9896 2.86316 74.696 3.13778C74.4072 3.40767 74.0568 3.54261 73.6449 3.54261ZM86.1893 7.97443L83.8455 8.23011C83.7792 7.99337 83.6632 7.77083 83.4975 7.5625C83.3365 7.35417 83.1187 7.18608 82.8441 7.05824C82.5695 6.9304 82.2333 6.86648 81.8356 6.86648C81.3005 6.86648 80.8507 6.98248 80.4862 7.21449C80.1263 7.4465 79.9487 7.74716 79.9535 8.11648C79.9487 8.43371 80.0647 8.69176 80.3015 8.89062C80.543 9.08949 80.9407 9.25284 81.4947 9.38068L83.3555 9.77841C84.3877 10.0009 85.1547 10.3537 85.6566 10.8366C86.1632 11.3196 86.4189 11.9517 86.4237 12.733C86.4189 13.4195 86.2177 14.0256 85.82 14.5511C85.427 15.072 84.8801 15.4792 84.1793 15.7727C83.4786 16.0663 82.6737 16.2131 81.7646 16.2131C80.4293 16.2131 79.3545 15.9337 78.5401 15.375C77.7257 14.8116 77.2404 14.0279 77.0842 13.0241L79.5913 12.7827C79.7049 13.2751 79.9464 13.6468 80.3157 13.8977C80.685 14.1487 81.1656 14.2741 81.7575 14.2741C82.3683 14.2741 82.8583 14.1487 83.2276 13.8977C83.6017 13.6468 83.7887 13.3366 83.7887 12.9673C83.7887 12.6548 83.668 12.3968 83.4265 12.1932C83.1897 11.9896 82.8204 11.8333 82.3185 11.7244L80.4577 11.3338C79.4113 11.116 78.6372 10.7491 78.1353 10.233C77.6334 9.71212 77.3848 9.05398 77.3896 8.25852C77.3848 7.58617 77.5671 7.00379 77.9364 6.51136C78.3105 6.0142 78.829 5.63068 79.4918 5.3608C80.1594 5.08617 80.9289 4.94886 81.8001 4.94886C83.0785 4.94886 84.0846 5.22112 84.8185 5.76562C85.5572 6.31013 86.0141 7.0464 86.1893 7.97443ZM93.3732 16.2131C92.2795 16.2131 91.3349 15.9858 90.5394 15.5312C89.7487 15.072 89.1403 14.4233 88.7141 13.5852C88.288 12.7424 88.0749 11.7505 88.0749 10.6094C88.0749 9.48722 88.288 8.50237 88.7141 7.65483C89.145 6.80256 89.7463 6.13968 90.5181 5.66619C91.2899 5.18797 92.1966 4.94886 93.2383 4.94886C93.9106 4.94886 94.5451 5.05777 95.1417 5.27557C95.743 5.48864 96.2733 5.82008 96.7326 6.26989C97.1966 6.7197 97.5612 7.29261 97.8263 7.98864C98.0915 8.67992 98.2241 9.50379 98.2241 10.4602V11.2486H89.2823V9.51562H95.7596C95.7549 9.0232 95.6483 8.58523 95.44 8.2017C95.2317 7.81345 94.9405 7.50805 94.5664 7.28551C94.1971 7.06297 93.7662 6.9517 93.2738 6.9517C92.7482 6.9517 92.2866 7.07955 91.8888 7.33523C91.4911 7.58617 91.181 7.91761 90.9585 8.32955C90.7406 8.73674 90.6294 9.18419 90.6246 9.67188V11.1847C90.6246 11.8191 90.7406 12.3636 90.9727 12.8182C91.2047 13.268 91.529 13.6136 91.9457 13.8551C92.3623 14.0919 92.85 14.2102 93.4087 14.2102C93.7828 14.2102 94.1213 14.1581 94.4244 14.054C94.7274 13.9451 94.9902 13.7865 95.2127 13.5781C95.4353 13.3698 95.6033 13.1117 95.717 12.804L98.1175 13.0739C97.966 13.7083 97.6772 14.2623 97.2511 14.7358C96.8297 15.2045 96.2899 15.5691 95.6317 15.8295C94.9736 16.0852 94.2208 16.2131 93.3732 16.2131Z" fill="#FFF9E9"/>
</svg>
